<svg width="256" height="28" viewBox="0 0 256 28" fill="none" xmlns="http://www.w3.org/2000/svg">
<path d="M0.6875 27V0.818181H12.0398C14.0341 0.818181 15.7088 1.08665 17.0639 1.62358C18.4276 2.16051 19.4545 2.91903 20.1449 3.89915C20.8438 4.87926 21.1932 6.03409 21.1932 7.36364C21.1932 8.3267 20.9801 9.20454 20.554 9.99716C20.1364 10.7898 19.5483 11.4545 18.7898 11.9915C18.0313 12.5199 17.1449 12.8864 16.1307 13.0909V13.3466C17.2557 13.3892 18.2784 13.6747 19.1989 14.2031C20.1193 14.723 20.8523 15.4432 21.3977 16.3636C21.9432 17.2756 22.2159 18.3494 22.2159 19.5852C22.2159 21.017 21.8409 22.2912 21.0909 23.4077C20.3494 24.5241 19.2926 25.402 17.9205 26.0412C16.5483 26.6804 14.9119 27 13.0114 27H0.6875ZM7.79545 21.3239H11.1193C12.3125 21.3239 13.2074 21.1023 13.804 20.6591C14.4006 20.2074 14.6989 19.5426 14.6989 18.6648C14.6989 18.0511 14.5582 17.5312 14.277 17.1051C13.9957 16.679 13.5952 16.3551 13.0753 16.1335C12.5639 15.9119 11.946 15.8011 11.2216 15.8011H7.79545V21.3239ZM7.79545 11.4034H10.7102C11.3324 11.4034 11.8821 11.3054 12.3594 11.1094C12.8366 10.9134 13.2074 10.6321 13.4716 10.2656C13.7443 9.89062 13.8807 9.43466 13.8807 8.89773C13.8807 8.08807 13.5909 7.47017 13.0114 7.04403C12.4318 6.60938 11.6989 6.39205 10.8125 6.39205H7.79545V11.4034ZM28.5144 27V0.818181H47.3837V6.54545H35.6223V11.0455H46.4121V16.7727H35.6223V21.2727H47.3326V27H28.5144ZM68.8025 9C68.7344 8.14773 68.4148 7.48295 67.8437 7.00568C67.2812 6.52841 66.4247 6.28977 65.2741 6.28977C64.5412 6.28977 63.9403 6.37926 63.4716 6.55824C63.0114 6.72869 62.6704 6.96307 62.4489 7.26136C62.2273 7.55966 62.1122 7.90057 62.1037 8.28409C62.0866 8.59943 62.142 8.88494 62.2699 9.14062C62.4062 9.38778 62.6193 9.61364 62.9091 9.81818C63.1989 10.0142 63.5696 10.1932 64.0213 10.3551C64.473 10.517 65.0099 10.6619 65.6321 10.7898L67.7798 11.25C69.2287 11.5568 70.4687 11.9616 71.5 12.4645C72.5312 12.9673 73.375 13.5597 74.0312 14.2415C74.6875 14.9148 75.169 15.6733 75.4758 16.517C75.7912 17.3608 75.9531 18.2812 75.9616 19.2784C75.9531 21 75.5227 22.4574 74.6704 23.6506C73.8182 24.8438 72.5994 25.7514 71.0142 26.3736C69.4375 26.9957 67.5412 27.3068 65.3253 27.3068C63.0497 27.3068 61.0639 26.9702 59.3679 26.2969C57.6804 25.6236 56.3679 24.5881 55.4304 23.1903C54.5014 21.7841 54.0327 19.9858 54.0241 17.7955H60.7741C60.8167 18.5966 61.017 19.2699 61.375 19.8153C61.7329 20.3608 62.2358 20.7741 62.8835 21.0554C63.5398 21.3366 64.3196 21.4773 65.223 21.4773C65.9815 21.4773 66.6165 21.3835 67.1278 21.196C67.6392 21.0085 68.027 20.7486 68.2912 20.4162C68.5554 20.0838 68.6917 19.7045 68.7003 19.2784C68.6917 18.8778 68.5596 18.5284 68.304 18.2301C68.0568 17.9233 67.6477 17.6506 67.0767 17.4119C66.5057 17.1648 65.7344 16.9347 64.7628 16.7216L62.1548 16.1591C59.8366 15.6562 58.0085 14.8168 56.6704 13.6406C55.3409 12.456 54.6804 10.8409 54.6889 8.79545C54.6804 7.13352 55.1236 5.6804 56.0185 4.43608C56.9219 3.18324 58.1704 2.20739 59.7642 1.50852C61.3665 0.809658 63.2031 0.460226 65.2741 0.460226C67.3878 0.460226 69.2159 0.81392 70.7585 1.52131C72.3011 2.22869 73.49 3.22585 74.3253 4.51278C75.169 5.79119 75.5952 7.28693 75.6037 9H68.8025ZM81.7296 6.54545V0.818181H104.485V6.54545H96.6102V27H89.6046V6.54545H81.7296ZM129 0.818181V27H121.892V0.818181H129ZM136.149 0.818181H144.995L151.081 15.6477H151.387L157.473 0.818181H166.319V27H159.365V11.8636H159.16L153.331 26.7955H149.137L143.308 11.7614H143.103V27H136.149V0.818181ZM180.269 27H172.599L181.241 0.818181H190.956L199.599 27H191.928L186.201 8.02841H185.996L180.269 27ZM178.837 16.6705H193.258V21.9886H178.837V16.6705ZM221.673 9.46023C221.562 9.00852 221.387 8.61222 221.148 8.27131C220.91 7.92188 220.611 7.62784 220.254 7.3892C219.904 7.14205 219.495 6.95881 219.026 6.83949C218.566 6.71165 218.059 6.64773 217.505 6.64773C216.312 6.64773 215.293 6.93324 214.45 7.50426C213.614 8.07528 212.975 8.89773 212.532 9.97159C212.097 11.0455 211.88 12.3409 211.88 13.858C211.88 15.392 212.089 16.7045 212.506 17.7955C212.924 18.8864 213.546 19.7216 214.373 20.3011C215.2 20.8807 216.227 21.1705 217.454 21.1705C218.536 21.1705 219.435 21.0128 220.151 20.6974C220.876 20.3821 221.417 19.9347 221.775 19.3551C222.133 18.7756 222.312 18.0937 222.312 17.3097L223.539 17.4375H217.556V12.375H229.164V16.0057C229.164 18.392 228.657 20.4332 227.643 22.1293C226.637 23.8168 225.248 25.1122 223.475 26.0156C221.711 26.9105 219.687 27.358 217.403 27.358C214.854 27.358 212.617 26.8168 210.691 25.7344C208.765 24.652 207.261 23.1094 206.178 21.1065C205.104 19.1037 204.567 16.7216 204.567 13.9602C204.567 11.7955 204.896 9.87784 205.552 8.20739C206.217 6.53693 207.137 5.12642 208.313 3.97585C209.489 2.81676 210.849 1.94318 212.391 1.35511C213.934 0.758522 215.587 0.460226 217.352 0.460226C218.903 0.460226 220.343 0.681818 221.673 1.125C223.011 1.55966 224.191 2.18182 225.214 2.99148C226.245 3.79261 227.076 4.7429 227.707 5.84233C228.337 6.94176 228.721 8.14773 228.857 9.46023H221.673ZM236.258 27V0.818181H255.128V6.54545H243.366V11.0455H254.156V16.7727H243.366V21.2727H255.076V27H236.258Z" fill="url(#paint0_linear_10_2)"/>
<defs>
<linearGradient id="paint0_linear_10_2" x1="-15.4944" y1="14" x2="345.416" y2="14" gradientUnits="userSpaceOnUse">
<stop stop-color="#00E58B"/>
<stop offset="1" stop-color="white"/>
</linearGradient>
</defs>
</svg>
