<svg width="264" height="27" viewBox="0 0 264 27" fill="none" xmlns="http://www.w3.org/2000/svg">
<path d="M7.10795 0.357955V26.5398H0V0.357955H7.10795Z" fill="url(#paint0_linear_10_6)"/>
<path d="M14.2566 0.357955H23.1032L29.1884 15.1875H29.4952L35.5804 0.357955H44.427V26.5398H37.4725V11.4034H37.2679L31.4384 26.3352H27.2452L21.4157 11.3011H21.2111V26.5398H14.2566V0.357955Z" fill="url(#paint1_linear_10_6)"/>
<path d="M58.3768 26.5398H50.7063L59.3484 0.357955H69.0643L77.7063 26.5398H70.0359L64.3086 7.56818H64.104L58.3768 26.5398ZM56.9449 16.2102H71.3654V21.5284H56.9449V16.2102Z" fill="url(#paint2_linear_10_6)"/>
<path d="M99.7803 9C99.6695 8.5483 99.4948 8.15199 99.2562 7.81108C99.0176 7.46165 98.7193 7.16762 98.3613 6.92898C98.0119 6.68182 97.6028 6.49858 97.134 6.37926C96.6738 6.25142 96.1667 6.1875 95.6127 6.1875C94.4195 6.1875 93.4011 6.47301 92.5573 7.04403C91.7221 7.61506 91.0829 8.4375 90.6397 9.51136C90.205 10.5852 89.9877 11.8807 89.9877 13.3977C89.9877 14.9318 90.1965 16.2443 90.6141 17.3352C91.0318 18.4261 91.6539 19.2614 92.4806 19.8409C93.3073 20.4205 94.3343 20.7102 95.5616 20.7102C96.644 20.7102 97.5431 20.5526 98.259 20.2372C98.9835 19.9219 99.5247 19.4744 99.8826 18.8949C100.241 18.3153 100.42 17.6335 100.42 16.8494L101.647 16.9773H95.6639V11.9148H107.272V15.5455C107.272 17.9318 106.765 19.973 105.751 21.669C104.745 23.3565 103.356 24.652 101.583 25.5554C99.8187 26.4503 97.7945 26.8977 95.5105 26.8977C92.9622 26.8977 90.7249 26.3565 88.7988 25.2741C86.8727 24.1918 85.3684 22.6491 84.286 20.6463C83.2122 18.6435 82.6752 16.2614 82.6752 13.5C82.6752 11.3352 83.0033 9.41761 83.6596 7.74716C84.3244 6.07671 85.2448 4.66619 86.421 3.51562C87.5971 2.35653 88.9565 1.48295 90.4991 0.894886C92.0417 0.298295 93.6951 0 95.4593 0C97.0104 0 98.4508 0.221591 99.7803 0.664774C101.118 1.09943 102.299 1.72159 103.322 2.53125C104.353 3.33239 105.184 4.28267 105.814 5.3821C106.445 6.48153 106.829 7.6875 106.965 9H99.7803Z" fill="url(#paint3_linear_10_6)"/>
<path d="M114.366 26.5398V0.357955H133.235V6.08523H121.474V10.5852H132.264V16.3125H121.474V20.8125H133.184V26.5398H114.366Z" fill="url(#paint4_linear_10_6)"/>
<path d="M151.492 26.5398V0.357955H169.902V6.08523H158.6V10.5852H168.777V16.3125H158.6V26.5398H151.492Z" fill="url(#paint5_linear_10_6)"/>
<path d="M179.828 26.5398H172.157L180.799 0.357955H190.515L199.157 26.5398H191.487L185.759 7.56818H185.555L179.828 26.5398ZM178.396 16.2102H192.816V21.5284H178.396V16.2102Z" fill="url(#paint6_linear_10_6)"/>
<path d="M205.459 26.5398V0.357955H216.76C218.703 0.357955 220.403 0.711648 221.861 1.41903C223.318 2.12642 224.452 3.14489 225.261 4.47443C226.071 5.80398 226.476 7.39773 226.476 9.25568C226.476 11.1307 226.058 12.7116 225.223 13.9986C224.396 15.2855 223.233 16.2571 221.733 16.9134C220.241 17.5696 218.499 17.8977 216.504 17.8977H209.754V12.375H215.072C215.908 12.375 216.619 12.2727 217.207 12.0682C217.804 11.8551 218.26 11.5185 218.575 11.0582C218.899 10.598 219.061 9.99716 219.061 9.25568C219.061 8.50568 218.899 7.89631 218.575 7.42756C218.26 6.95029 217.804 6.60085 217.207 6.37926C216.619 6.14915 215.908 6.03409 215.072 6.03409H212.567V26.5398H205.459ZM220.8 14.5227L227.345 26.5398H219.624L213.231 14.5227H220.8Z" fill="url(#paint7_linear_10_6)"/>
<path d="M233.286 0.357955H242.132L248.217 15.1875H248.524L254.609 0.357955H263.456V26.5398H256.502V11.4034H256.297L250.467 26.3352H246.274L240.445 11.3011H240.24V26.5398H233.286V0.357955Z" fill="url(#paint8_linear_10_6)"/>
<defs>
<linearGradient id="paint0_linear_10_6" x1="-16.6875" y1="13.5405" x2="356.813" y2="13.5405" gradientUnits="userSpaceOnUse">
<stop stop-color="#8DC442"/>
<stop offset="1" stop-color="#00E58B"/>
</linearGradient>
<linearGradient id="paint1_linear_10_6" x1="-16.6875" y1="13.5405" x2="356.813" y2="13.5405" gradientUnits="userSpaceOnUse">
<stop stop-color="#8DC442"/>
<stop offset="1" stop-color="#00E58B"/>
</linearGradient>
<linearGradient id="paint2_linear_10_6" x1="-16.6875" y1="13.5405" x2="356.813" y2="13.5405" gradientUnits="userSpaceOnUse">
<stop stop-color="#8DC442"/>
<stop offset="1" stop-color="#00E58B"/>
</linearGradient>
<linearGradient id="paint3_linear_10_6" x1="-16.6875" y1="13.5405" x2="356.813" y2="13.5405" gradientUnits="userSpaceOnUse">
<stop stop-color="#8DC442"/>
<stop offset="1" stop-color="#00E58B"/>
</linearGradient>
<linearGradient id="paint4_linear_10_6" x1="-16.6875" y1="13.5405" x2="356.813" y2="13.5405" gradientUnits="userSpaceOnUse">
<stop stop-color="#8DC442"/>
<stop offset="1" stop-color="#00E58B"/>
</linearGradient>
<linearGradient id="paint5_linear_10_6" x1="-16.6875" y1="13.5405" x2="356.813" y2="13.5405" gradientUnits="userSpaceOnUse">
<stop stop-color="#8DC442"/>
<stop offset="1" stop-color="#00E58B"/>
</linearGradient>
<linearGradient id="paint6_linear_10_6" x1="-16.6875" y1="13.5405" x2="356.813" y2="13.5405" gradientUnits="userSpaceOnUse">
<stop stop-color="#8DC442"/>
<stop offset="1" stop-color="#00E58B"/>
</linearGradient>
<linearGradient id="paint7_linear_10_6" x1="-16.6875" y1="13.5405" x2="356.813" y2="13.5405" gradientUnits="userSpaceOnUse">
<stop stop-color="#8DC442"/>
<stop offset="1" stop-color="#00E58B"/>
</linearGradient>
<linearGradient id="paint8_linear_10_6" x1="-16.6875" y1="13.5405" x2="356.813" y2="13.5405" gradientUnits="userSpaceOnUse">
<stop stop-color="#8DC442"/>
<stop offset="1" stop-color="#00E58B"/>
</linearGradient>
</defs>
</svg>
